<svg width="24" height="24" viewBox="0 0 24 24" fill="none" xmlns="http://www.w3.org/2000/svg">
<path d="M23.7662 9.64963H22.7996V9.59983H11.9998V14.3998H18.7815C17.7921 17.1939 15.1335 19.1997 11.9998 19.1997C8.02366 19.1997 4.79992 15.9759 4.79992 11.9998C4.79992 8.02366 8.02366 4.79992 11.9998 4.79992C13.8352 4.79992 15.5049 5.4923 16.7763 6.62329L20.1705 3.22914C18.0273 1.23178 15.1605 0 11.9998 0C5.37291 0 0 5.37291 0 11.9998C0 18.6267 5.37291 23.9996 11.9998 23.9996C18.6267 23.9996 23.9996 18.6267 23.9996 11.9998C23.9996 11.1952 23.9168 10.4098 23.7662 9.64963Z" fill="#FFC107"/>
</svg>
